<?xml version="1.0" encoding="UTF-8" standalone="no"?>
<!DOCTYPE svg PUBLIC "-//W3C//DTD SVG 1.1//EN"
 "http://www.w3.org/Graphics/SVG/1.1/DTD/svg11.dtd">
<!-- Generated by graphviz version 2.42.4 (0)
 -->
<!-- Title: diagram Pages: 1 -->
<svg role="img" aria-label="Layer server-request destination controls" width="683pt" height="659pt"
 viewBox="0.00 0.00 683.40 659.40" xmlns="http://www.w3.org/2000/svg" xmlns:xlink="http://www.w3.org/1999/xlink">
<g id="graph0" class="graph" transform="scale(1 1) rotate(0) translate(25.2 634.2)">
<title>Layer server-request destination controls</title><desc>A requested destination passes consistent parsing, application policy and independent network egress checks. Invalid input or either policy failure is rejected. Only an approved destination is requested.</desc>
<polygon fill="white" stroke="transparent" points="-25.2,25.2 -25.2,-634.2 658.2,-634.2 658.2,25.2 -25.2,25.2"/>
<text text-anchor="middle" x="316.5" y="-589" font-family="DejaVu Sans" font-size="20.00">Layer server&#45;request destination controls</text>
<!-- input -->
<g id="node1" class="node">
<title>input</title>
<path fill="#f1f5f9" stroke="#64748b" d="M500.5,-579C500.5,-579 347.5,-579 347.5,-579 341.5,-579 335.5,-573 335.5,-567 335.5,-567 335.5,-553 335.5,-553 335.5,-547 341.5,-541 347.5,-541 347.5,-541 500.5,-541 500.5,-541 506.5,-541 512.5,-547 512.5,-553 512.5,-553 512.5,-567 512.5,-567 512.5,-573 506.5,-579 500.5,-579"/>
<text text-anchor="middle" x="424" y="-556.6" font-family="DejaVu Sans" font-size="13.00" fill="#172033">Requested destination</text>
</g>
<!-- parse -->
<g id="node2" class="node">
<title>parse</title>
<path fill="#f1f5f9" stroke="#64748b" d="M502.5,-492C502.5,-492 345.5,-492 345.5,-492 339.5,-492 333.5,-486 333.5,-480 333.5,-480 333.5,-452 333.5,-452 333.5,-446 339.5,-440 345.5,-440 345.5,-440 502.5,-440 502.5,-440 508.5,-440 514.5,-446 514.5,-452 514.5,-452 514.5,-480 514.5,-480 514.5,-486 508.5,-492 502.5,-492"/>
<text text-anchor="middle" x="424" y="-469.6" font-family="DejaVu Sans" font-size="13.00" fill="#172033">Consistent parsing and</text>
<text text-anchor="middle" x="424" y="-455.6" font-family="DejaVu Sans" font-size="13.00" fill="#172033">validation</text>
</g>
<!-- input&#45;&gt;parse -->
<g id="edge1" class="edge">
<title>input&#45;&gt;parse</title>
<path fill="none" stroke="#64748b" d="M424,-540.82C424,-529.83 424,-515.45 424,-502.3"/>
<polygon fill="#64748b" stroke="#64748b" points="427.5,-502.1 424,-492.1 420.5,-502.1 427.5,-502.1"/>
</g>
<!-- policy -->
<g id="node3" class="node">
<title>policy</title>
<path fill="#e0ecf8" stroke="#64748b" d="M288.41,-376.89C288.41,-376.89 117.59,-331.11 117.59,-331.11 111.8,-329.55 111.8,-326.45 117.59,-324.89 117.59,-324.89 288.41,-279.11 288.41,-279.11 294.2,-277.55 305.8,-277.55 311.59,-279.11 311.59,-279.11 482.41,-324.89 482.41,-324.89 488.2,-326.45 488.2,-329.55 482.41,-331.11 482.41,-331.11 311.59,-376.89 311.59,-376.89 305.8,-378.45 294.2,-378.45 288.41,-376.89"/>
<text text-anchor="middle" x="300" y="-331.6" font-family="DejaVu Sans" font-size="13.00" fill="#172033">Destination permitted by</text>
<text text-anchor="middle" x="300" y="-317.6" font-family="DejaVu Sans" font-size="13.00" fill="#172033">application policy?</text>
</g>
<!-- parse&#45;&gt;policy -->
<g id="edge2" class="edge">
<title>parse&#45;&gt;policy</title>
<path fill="none" stroke="#64748b" d="M400.97,-439.74C385.12,-422.36 363.57,-398.72 344.44,-377.75"/>
<polygon fill="#64748b" stroke="#64748b" points="346.85,-375.19 337.52,-370.15 341.67,-379.9 346.85,-375.19"/>
<text text-anchor="middle" x="390.5" y="-407.2" font-family="DejaVu Sans" font-size="11.00" fill="#334155">Valid</text>
</g>
<!-- deny -->
<g id="node6" class="node">
<title>deny</title>
<path fill="#fef3c7" stroke="#64748b" d="M541.5,-45C541.5,-45 414.5,-45 414.5,-45 408.5,-45 402.5,-39 402.5,-33 402.5,-33 402.5,-19 402.5,-19 402.5,-13 408.5,-7 414.5,-7 414.5,-7 541.5,-7 541.5,-7 547.5,-7 553.5,-13 553.5,-19 553.5,-19 553.5,-33 553.5,-33 553.5,-39 547.5,-45 541.5,-45"/>
<text text-anchor="middle" x="478" y="-22.6" font-family="DejaVu Sans" font-size="13.00" fill="#172033">Reject the request</text>
</g>
<!-- parse&#45;&gt;deny -->
<g id="edge3" class="edge">
<title>parse&#45;&gt;deny</title>
<path fill="none" stroke="#64748b" d="M461.85,-439.85C480.74,-424.95 501.71,-404.25 512,-380 528.76,-340.51 510.97,-126 499,-76 497.29,-68.86 494.63,-61.45 491.76,-54.61"/>
<polygon fill="#64748b" stroke="#64748b" points="494.79,-52.81 487.51,-45.11 488.4,-55.66 494.79,-52.81"/>
<text text-anchor="middle" x="575.5" y="-243.2" font-family="DejaVu Sans" font-size="11.00" fill="#334155">Invalid or ambiguous</text>
</g>
<!-- network -->
<g id="node4" class="node">
<title>network</title>
<path fill="#e0ecf8" stroke="#64748b" d="M191.38,-213.02C191.38,-213.02 11.62,-166.98 11.62,-166.98 5.81,-165.49 5.81,-162.51 11.62,-161.02 11.62,-161.02 191.38,-114.98 191.38,-114.98 197.19,-113.49 208.81,-113.49 214.62,-114.98 214.62,-114.98 394.38,-161.02 394.38,-161.02 400.19,-162.51 400.19,-165.49 394.38,-166.98 394.38,-166.98 214.62,-213.02 214.62,-213.02 208.81,-214.51 197.19,-214.51 191.38,-213.02"/>
<text text-anchor="middle" x="203" y="-167.6" font-family="DejaVu Sans" font-size="13.00" fill="#172033">Independent egress policy</text>
<text text-anchor="middle" x="203" y="-153.6" font-family="DejaVu Sans" font-size="13.00" fill="#172033">permits access?</text>
</g>
<!-- policy&#45;&gt;network -->
<g id="edge4" class="edge">
<title>policy&#45;&gt;network</title>
<path fill="none" stroke="#64748b" d="M273.49,-282.73C261.57,-262.81 247.39,-239.13 234.89,-218.25"/>
<polygon fill="#64748b" stroke="#64748b" points="237.78,-216.28 229.64,-209.49 231.78,-219.87 237.78,-216.28"/>
<text text-anchor="middle" x="264.5" y="-243.2" font-family="DejaVu Sans" font-size="11.00" fill="#334155">Yes</text>
</g>
<!-- policy&#45;&gt;deny -->
<g id="edge5" class="edge">
<title>policy&#45;&gt;deny</title>
<path fill="none" stroke="#64748b" d="M353.48,-290.2C378.15,-270.74 405.9,-244.9 424,-216 456.12,-164.71 469.65,-93.79 474.93,-55.05"/>
<polygon fill="#64748b" stroke="#64748b" points="478.42,-55.38 476.22,-45.01 471.48,-54.49 478.42,-55.38"/>
<text text-anchor="middle" x="473" y="-161.2" font-family="DejaVu Sans" font-size="11.00" fill="#334155">No</text>
</g>
<!-- allow -->
<g id="node5" class="node">
<title>allow</title>
<path fill="#dcfce7" stroke="#64748b" d="M294.5,-52C294.5,-52 111.5,-52 111.5,-52 105.5,-52 99.5,-46 99.5,-40 99.5,-40 99.5,-12 99.5,-12 99.5,-6 105.5,0 111.5,0 111.5,0 294.5,0 294.5,0 300.5,0 306.5,-6 306.5,-12 306.5,-12 306.5,-40 306.5,-40 306.5,-46 300.5,-52 294.5,-52"/>
<text text-anchor="middle" x="203" y="-29.6" font-family="DejaVu Sans" font-size="13.00" fill="#172033">Request only the approved</text>
<text text-anchor="middle" x="203" y="-15.6" font-family="DejaVu Sans" font-size="13.00" fill="#172033">destination</text>
</g>
<!-- network&#45;&gt;allow -->
<g id="edge6" class="edge">
<title>network&#45;&gt;allow</title>
<path fill="none" stroke="#64748b" d="M203,-111.97C203,-95.6 203,-77.82 203,-62.78"/>
<polygon fill="#64748b" stroke="#64748b" points="206.5,-62.36 203,-52.37 199.5,-62.37 206.5,-62.36"/>
<text text-anchor="middle" x="212.5" y="-79.2" font-family="DejaVu Sans" font-size="11.00" fill="#334155">Yes</text>
</g>
<!-- network&#45;&gt;deny -->
<g id="edge7" class="edge">
<title>network&#45;&gt;deny</title>
<path fill="none" stroke="#64748b" d="M270.98,-129.38C321.32,-104.49 388.52,-71.25 432.51,-49.5"/>
<polygon fill="#64748b" stroke="#64748b" points="434.12,-52.6 441.53,-45.03 431.02,-46.33 434.12,-52.6"/>
<text text-anchor="middle" x="382" y="-79.2" font-family="DejaVu Sans" font-size="11.00" fill="#334155">No</text>
</g>
</g>
</svg>
